<mxfile host="app.diagrams.net" modified="2024-02-14T19:16:12.913Z" agent="Mozilla/5.0 (Windows NT 10.0; Win64; x64) AppleWebKit/537.36 (KHTML, like Gecko) Chrome/121.0.0.0 Safari/537.36 Edg/121.0.0.0" version="23.1.4" etag="V3AyDBfA51zziKD-2lGQ" type="github">
  <diagram name="Page-1" id="w5ZIDnGCeFvzQgdKU_jW">
    <mxGraphModel>
      <root>
        <mxCell id="0" />
        <mxCell id="1" parent="0" />
      </root>
    </mxGraphModel>
  </diagram>
</mxfile>
